<svg
  xmlns="http://www.w3.org/2000/svg"
  viewBox="0 0 400 400"
  width="400"
  height="400"
>
  <!-- White background -->
  <rect width="400" height="400" rx="8" fill="#ffffff" />

  <!-- Pinwheel mark centered -->
  <g transform="translate(88, 88) scale(2.015)">
    <g transform="translate(.025 .025)">
      <path
        fill="#f9c513"
        d="M75.242 94.909a13.912 13.912 0 0 1 0-19.668 27.81 27.81 0 0 1-39.331 0 13.907 13.907 0 0 1-19.668 19.668 55.688 55.688 0 0 0 78.667 0 13.912 13.912 0 0 1-19.668 0Z"
      />
      <path
        fill="#0969da"
        d="M94.909 16.242a55.626 55.626 0 0 0-78.667 78.667A13.907 13.907 0 0 1 35.91 75.241 27.811 27.811 0 0 1 75.241 35.91a13.907 13.907 0 0 0 19.668-19.668Z"
      />
      <circle
        cx="13.908"
        cy="13.908"
        r="13.908"
        fill="#1f883d"
        transform="translate(12.166 71.165)"
      />
      <path
        fill="#cf222e"
        d="M94.909 16.242A13.907 13.907 0 0 1 75.241 35.91a27.81 27.81 0 0 1 0 39.331 13.907 13.907 0 0 0 19.668 19.668 55.7 55.7 0 0 0 0-78.667Z"
      />
    </g>
  </g>
</svg>
